<svg xmlns="http://www.w3.org/2000/svg" xmlns:xlink="http://www.w3.org/1999/xlink" width="500" zoomAndPan="magnify" viewBox="0 0 375 374.999991" height="500" preserveAspectRatio="xMidYMid meet" version="1.0"><defs><g/><clipPath id="afd76db081"><path d="M 53.871094 96.535156 L 320.871094 96.535156 L 320.871094 363.535156 L 53.871094 363.535156 Z M 53.871094 96.535156 " clip-rule="nonzero"/></clipPath><clipPath id="3bc885f207"><path d="M 187.496094 96.535156 C 113.695312 96.535156 53.871094 156.359375 53.871094 230.160156 C 53.871094 303.957031 113.695312 363.78125 187.496094 363.78125 C 261.292969 363.78125 321.117188 303.957031 321.117188 230.160156 C 321.117188 156.359375 261.292969 96.535156 187.496094 96.535156 Z M 187.496094 96.535156 " clip-rule="nonzero"/></clipPath><clipPath id="9e0641eb0a"><path d="M 111.988281 11.207031 L 262.738281 11.207031 L 262.738281 96.707031 L 111.988281 96.707031 Z M 111.988281 11.207031 " clip-rule="nonzero"/></clipPath><clipPath id="3f71032e55"><path d="M 105.410156 148.152344 L 269.425781 148.152344 L 269.425781 312.167969 L 105.410156 312.167969 Z M 105.410156 148.152344 " clip-rule="nonzero"/></clipPath><clipPath id="42908cd45e"><path d="M 187.417969 148.152344 C 142.125 148.152344 105.410156 184.867188 105.410156 230.160156 C 105.410156 275.453125 142.125 312.167969 187.417969 312.167969 C 232.710938 312.167969 269.425781 275.453125 269.425781 230.160156 C 269.425781 184.867188 232.710938 148.152344 187.417969 148.152344 Z M 187.417969 148.152344 " clip-rule="nonzero"/></clipPath><clipPath id="59c48cf9f0"><path d="M 67.347656 220 L 86 220 L 86 240 L 67.347656 240 Z M 67.347656 220 " clip-rule="nonzero"/></clipPath><clipPath id="8d066d4be6"><path d="M 75 203.453125 L 89.847656 203.453125 L 89.847656 219 L 75 219 Z M 75 203.453125 " clip-rule="nonzero"/></clipPath><clipPath id="e493a756ec"><path d="M 75 242 L 89.847656 242 L 89.847656 256.703125 L 75 256.703125 Z M 75 242 " clip-rule="nonzero"/></clipPath><clipPath id="7d4576bc16"><path d="M 285.09375 203.453125 L 307.59375 203.453125 L 307.59375 256.703125 L 285.09375 256.703125 Z M 285.09375 203.453125 " clip-rule="nonzero"/></clipPath><clipPath id="d78dc5ea6d"><path d="M 4 17 L 22.582031 17 L 22.582031 37 L 4 37 Z M 4 17 " clip-rule="nonzero"/></clipPath><clipPath id="7904a0d4f6"><path d="M 0.09375 0.453125 L 15 0.453125 L 15 16 L 0.09375 16 Z M 0.09375 0.453125 " clip-rule="nonzero"/></clipPath><clipPath id="648a571d2f"><path d="M 0.09375 39 L 15 39 L 15 53.703125 L 0.09375 53.703125 Z M 0.09375 39 " clip-rule="nonzero"/></clipPath><clipPath id="b5285b1be4"><rect x="0" width="23" y="0" height="54"/></clipPath><clipPath id="f79f975c62"><path d="M 134 193.410156 L 181 193.410156 L 181 229 L 134 229 Z M 134 193.410156 " clip-rule="nonzero"/></clipPath><clipPath id="64046099ab"><path d="M 90 225 L 140 225 L 140 266.910156 L 90 266.910156 Z M 90 225 " clip-rule="nonzero"/></clipPath><clipPath id="8009803b01"><path d="M 226 229 L 284.839844 229 L 284.839844 260 L 226 260 Z M 226 229 " clip-rule="nonzero"/></clipPath><clipPath id="eda4f82b5a"><path d="M 124 252 L 152 252 L 152 266.910156 L 124 266.910156 Z M 124 252 " clip-rule="nonzero"/></clipPath></defs><g clip-path="url(#afd76db081)"><g clip-path="url(#3bc885f207)"><path stroke-linecap="butt" transform="matrix(0.75, 0, 0, 0.75, 53.871663, 96.536113)" fill="none" stroke-linejoin="miter" d="M 178.165919 -0.00127548 C 79.764871 -0.00127548 -0.000759483 79.764355 -0.000759483 178.165403 C -0.000759483 276.561243 79.764871 356.326873 178.165919 356.326873 C 276.561759 356.326873 356.327389 276.561243 356.327389 178.165403 C 356.327389 79.764355 276.561759 -0.00127548 178.165919 -0.00127548 Z M 178.165919 -0.00127548 " stroke="#ffffff" stroke-width="16" stroke-opacity="1" stroke-miterlimit="4"/></g></g><g clip-path="url(#9e0641eb0a)"><path fill="#ffffff" d="M 263.007812 40.75 L 258.871094 44.613281 L 259.480469 47.257812 C 239.644531 69.242188 226.546875 79.640625 222.722656 74.097656 C 219.667969 63.582031 221.199219 53.179688 226.003906 42.863281 L 230.082031 40.949219 L 230.871094 31.898438 L 224.597656 38.472656 L 225.882812 42.875 C 220.699219 51.574219 215.125 59.28125 208.753906 64.914062 C 202.046875 70.84375 200 71.675781 195.660156 62.347656 C 192.445312 55.4375 191.34375 46.179688 189.183594 38.097656 L 194.679688 31.683594 L 187.496094 11.230469 L 180.316406 31.683594 L 185.8125 38.09375 C 183.648438 46.179688 182.550781 55.4375 179.332031 62.347656 C 174.996094 71.675781 172.949219 70.84375 166.238281 64.914062 C 159.867188 59.28125 154.292969 51.574219 149.109375 42.875 L 150.394531 38.472656 L 144.121094 31.902344 L 144.910156 40.953125 L 148.992188 42.863281 C 153.796875 53.179688 155.328125 63.582031 152.273438 74.097656 C 148.449219 79.640625 135.351562 69.242188 115.515625 47.257812 L 116.121094 44.613281 L 111.988281 40.75 L 112.800781 46.351562 L 115.253906 47.332031 L 143.511719 96.527344 L 134.835938 72.628906 C 135.011719 72.773438 135.1875 72.914062 135.363281 73.054688 C 139.785156 76.597656 147.539062 82.335938 153.414062 78.917969 C 154.410156 78.339844 155.242188 77.546875 155.894531 76.601562 L 156.300781 76.011719 L 156.5 75.328125 C 157.683594 71.246094 158.238281 67.191406 158.246094 63.179688 C 159.859375 64.957031 161.546875 66.648438 163.324219 68.214844 C 166.308594 70.855469 170.09375 74.335938 174.410156 73.695312 C 179.074219 73.007812 181.546875 68.035156 183.324219 64.207031 C 185.300781 59.964844 186.480469 55.234375 187.496094 50.597656 C 188.511719 55.234375 189.691406 59.964844 191.667969 64.207031 C 193.449219 68.035156 195.917969 73.007812 200.585938 73.695312 C 204.902344 74.332031 208.683594 70.855469 211.671875 68.214844 C 213.445312 66.648438 215.136719 64.957031 216.75 63.179688 C 216.757812 67.191406 217.3125 71.246094 218.492188 75.328125 L 218.691406 76.011719 L 219.097656 76.601562 C 219.753906 77.546875 220.585938 78.339844 221.582031 78.917969 C 227.457031 82.339844 235.207031 76.597656 239.632812 73.054688 C 239.808594 72.914062 239.984375 72.773438 240.160156 72.628906 L 232.542969 94.761719 L 259.738281 47.332031 L 262.191406 46.351562 Z M 263.007812 40.75 " fill-opacity="1" fill-rule="evenodd"/></g><path fill="#ffffff" d="M 172.664062 59.007812 C 173.171875 61.320312 173.742188 63.65625 174.515625 65.890625 C 175.03125 65.214844 175.730469 64.085938 176.652344 62.183594 C 175.246094 56.996094 174.476562 51.09375 172.664062 46.351562 C 170.707031 51.476562 169.964844 57.957031 168.320312 63.429688 C 169.050781 64.070312 170.007812 64.894531 170.921875 65.578125 C 171.644531 63.441406 172.183594 61.210938 172.664062 59.007812 Z M 172.664062 59.007812 " fill-opacity="1" fill-rule="evenodd"/><path fill="#ffffff" d="M 202.285156 59.007812 C 202.769531 61.21875 203.3125 63.460938 204.039062 65.605469 C 204.949219 64.925781 205.90625 64.105469 206.640625 63.460938 C 204.988281 57.980469 204.25 51.488281 202.285156 46.351562 C 200.484375 51.074219 199.710938 56.949219 198.3125 62.128906 C 199.234375 64.023438 199.933594 65.164062 200.453125 65.851562 C 201.21875 63.632812 201.78125 61.304688 202.285156 59.007812 Z M 202.285156 59.007812 " fill-opacity="1" fill-rule="evenodd"/><path fill="#ffffff" d="M 228.464844 72.273438 C 229.003906 68.757812 229.921875 65.0625 230.011719 61.761719 C 227.9375 63.957031 226.117188 66.875 224.214844 69.554688 C 224.390625 70.53125 224.609375 71.503906 224.863281 72.472656 C 225.441406 71.71875 225.996094 70.941406 226.535156 70.171875 C 226.363281 71.121094 226.207031 72.082031 226.082031 73.050781 C 226.671875 72.972656 227.449219 72.75 228.464844 72.273438 Z M 228.464844 72.273438 " fill-opacity="1" fill-rule="evenodd"/><path fill="#ffffff" d="M 150.78125 69.554688 C 148.875 66.875 147.058594 63.957031 144.980469 61.761719 C 145.070312 65.0625 145.988281 68.757812 146.527344 72.273438 C 147.542969 72.75 148.320312 72.972656 148.914062 73.046875 C 148.789062 72.082031 148.628906 71.117188 148.460938 70.167969 C 149 70.941406 149.550781 71.71875 150.128906 72.46875 C 150.386719 71.503906 150.605469 70.53125 150.78125 69.554688 Z M 150.78125 69.554688 " fill-opacity="1" fill-rule="evenodd"/><path fill="#ffffff" d="M 219.109375 89.324219 C 217.507812 88.394531 216.140625 87.125 215.058594 85.554688 L 214.195312 84.308594 L 213.773438 82.855469 C 213.476562 81.828125 213.214844 80.792969 212.984375 79.75 C 210.054688 82.226562 206.304688 84.84375 201.628906 84.84375 C 201.039062 84.84375 200.449219 84.800781 199.871094 84.714844 C 192.789062 83.671875 189.378906 77.054688 187.496094 73.046875 C 185.617188 77.054688 182.214844 83.671875 175.125 84.714844 C 174.546875 84.800781 173.957031 84.84375 173.371094 84.84375 C 168.695312 84.84375 164.945312 82.226562 162.011719 79.75 C 161.78125 80.792969 161.519531 81.828125 161.222656 82.855469 L 160.800781 84.304688 L 159.945312 85.546875 C 158.855469 87.121094 157.492188 88.390625 155.886719 89.324219 C 153.933594 90.464844 151.753906 91.039062 149.410156 91.039062 C 148.421875 91.039062 147.441406 90.9375 146.46875 90.746094 L 148.628906 94.976562 C 155.644531 92.460938 167.375 89.464844 183.476562 89.464844 L 184.019531 89.464844 C 185.207031 89.464844 186.367188 89.480469 187.5 89.507812 C 188.632812 89.480469 189.789062 89.464844 190.976562 89.464844 L 191.519531 89.464844 C 209.132812 89.464844 221.515625 93.046875 228.222656 95.667969 L 231.085938 90.070312 L 231.089844 90.054688 C 229.292969 90.667969 227.449219 91.039062 225.589844 91.039062 C 223.246094 91.039062 221.066406 90.460938 219.109375 89.324219 Z M 219.109375 89.324219 " fill-opacity="1" fill-rule="evenodd"/><g fill="#ffffff" fill-opacity="1"><g transform="translate(123.463584, 157.470143)"><g><path d="M 6.921875 -4.40625 C 5.816406 -3.664062 4.703125 -3.179688 3.578125 -2.953125 C 2.453125 -2.722656 1.394531 -2.785156 0.40625 -3.140625 C -0.582031 -3.492188 -1.425781 -4.160156 -2.125 -5.140625 L 1.796875 -7.765625 C 2.222656 -7.242188 2.703125 -6.941406 3.234375 -6.859375 C 3.765625 -6.785156 4.296875 -6.925781 4.828125 -7.28125 C 5.367188 -7.65625 5.707031 -8.070312 5.84375 -8.53125 C 5.988281 -9 5.914062 -9.453125 5.625 -9.890625 C 5.363281 -10.265625 5.023438 -10.488281 4.609375 -10.5625 C 4.203125 -10.644531 3.765625 -10.640625 3.296875 -10.546875 C 2.835938 -10.460938 2.203125 -10.300781 1.390625 -10.0625 C 0.203125 -9.707031 -0.796875 -9.46875 -1.609375 -9.34375 C -2.429688 -9.226562 -3.257812 -9.316406 -4.09375 -9.609375 C -4.9375 -9.898438 -5.675781 -10.519531 -6.3125 -11.46875 C -7.257812 -12.882812 -7.488281 -14.332031 -7 -15.8125 C -6.507812 -17.289062 -5.445312 -18.578125 -3.8125 -19.671875 C -2.144531 -20.796875 -0.539062 -21.300781 1 -21.1875 C 2.550781 -21.070312 3.847656 -20.328125 4.890625 -18.953125 L 0.890625 -16.265625 C 0.523438 -16.742188 0.0859375 -17.007812 -0.421875 -17.0625 C -0.941406 -17.125 -1.460938 -16.984375 -1.984375 -16.640625 C -2.421875 -16.335938 -2.691406 -15.972656 -2.796875 -15.546875 C -2.910156 -15.128906 -2.816406 -14.695312 -2.515625 -14.25 C -2.191406 -13.769531 -1.707031 -13.546875 -1.0625 -13.578125 C -0.425781 -13.609375 0.484375 -13.796875 1.671875 -14.140625 C 2.867188 -14.460938 3.875 -14.675781 4.6875 -14.78125 C 5.5 -14.894531 6.316406 -14.8125 7.140625 -14.53125 C 7.972656 -14.257812 8.695312 -13.671875 9.3125 -12.765625 C 9.882812 -11.898438 10.1875 -10.96875 10.21875 -9.96875 C 10.25 -8.976562 9.988281 -7.992188 9.4375 -7.015625 C 8.894531 -6.035156 8.054688 -5.164062 6.921875 -4.40625 Z M 6.921875 -4.40625 "/></g></g></g><g fill="#ffffff" fill-opacity="1"><g transform="translate(135.553959, 149.024045)"><g><path d="M 9.375 -4.046875 C 7.820312 -3.347656 6.234375 -3.0625 4.609375 -3.1875 C 2.984375 -3.320312 1.488281 -3.867188 0.125 -4.828125 C -1.226562 -5.785156 -2.269531 -7.078125 -3 -8.703125 C -3.738281 -10.316406 -4.019531 -11.941406 -3.84375 -13.578125 C -3.664062 -15.210938 -3.09375 -16.6875 -2.125 -18 C -1.15625 -19.320312 0.101562 -20.332031 1.65625 -21.03125 C 3.21875 -21.738281 4.8125 -22.023438 6.4375 -21.890625 C 8.0625 -21.765625 9.539062 -21.222656 10.875 -20.265625 C 12.21875 -19.316406 13.257812 -18.035156 14 -16.421875 C 14.726562 -14.796875 15.007812 -13.160156 14.84375 -11.515625 C 14.6875 -9.867188 14.125 -8.390625 13.15625 -7.078125 C 12.195312 -5.765625 10.9375 -4.753906 9.375 -4.046875 Z M 7.703125 -7.734375 C 9.023438 -8.335938 9.882812 -9.257812 10.28125 -10.5 C 10.675781 -11.738281 10.546875 -13.085938 9.890625 -14.546875 C 9.222656 -16.003906 8.289062 -16.988281 7.09375 -17.5 C 5.90625 -18.019531 4.648438 -17.976562 3.328125 -17.375 C 1.992188 -16.769531 1.125 -15.851562 0.71875 -14.625 C 0.3125 -13.40625 0.445312 -12.054688 1.125 -10.578125 C 1.78125 -9.109375 2.707031 -8.113281 3.90625 -7.59375 C 5.101562 -7.082031 6.367188 -7.128906 7.703125 -7.734375 Z M 7.703125 -7.734375 "/></g></g></g><g fill="#ffffff" fill-opacity="1"><g transform="translate(152.922509, 141.111806)"><g><path d="M 1.25 -19.109375 L 3.96875 -8.5625 C 4.238281 -7.519531 4.707031 -6.78125 5.375 -6.34375 C 6.039062 -5.90625 6.875 -5.8125 7.875 -6.0625 C 8.882812 -6.320312 9.582031 -6.804688 9.96875 -7.515625 C 10.351562 -8.222656 10.410156 -9.097656 10.140625 -10.140625 L 7.421875 -20.6875 L 11.71875 -21.796875 L 14.421875 -11.28125 C 14.828125 -9.707031 14.832031 -8.289062 14.4375 -7.03125 C 14.050781 -5.769531 13.363281 -4.710938 12.375 -3.859375 C 11.382812 -3.015625 10.195312 -2.414062 8.8125 -2.0625 C 7.425781 -1.707031 6.113281 -1.660156 4.875 -1.921875 C 3.632812 -2.191406 2.554688 -2.789062 1.640625 -3.71875 C 0.722656 -4.65625 0.0625 -5.910156 -0.34375 -7.484375 L -3.046875 -18 Z M 1.25 -19.109375 "/></g></g></g><g fill="#ffffff" fill-opacity="1"><g transform="translate(169.531953, 136.873204)"><g><path d="M 12.828125 -19.5625 L 13.171875 -16.03125 L 8.375 -15.5625 L 9.828125 -0.984375 L 5.421875 -0.546875 L 3.96875 -15.125 L -0.828125 -14.640625 L -1.171875 -18.171875 Z M 12.828125 -19.5625 "/></g></g></g><g fill="#ffffff" fill-opacity="1"><g transform="translate(183.623565, 135.241374)"><g><path d="M 18.359375 -17.203125 L 17.34375 0.96875 L 12.921875 0.71875 L 13.34375 -6.765625 L 6.453125 -7.140625 L 6.03125 0.34375 L 1.609375 0.09375 L 2.625 -18.078125 L 7.046875 -17.828125 L 6.65625 -10.71875 L 13.546875 -10.34375 L 13.9375 -17.453125 Z M 18.359375 -17.203125 "/></g></g></g><g fill="#ffffff" fill-opacity="1"><g transform="translate(201.29302, 136.124961)"><g><path d="M 22.328125 -13.515625 L 11.9375 2.765625 L 6.515625 1.515625 L 4.34375 -17.6875 L 8.9375 -16.609375 L 10.234375 -2.21875 L 17.75 -14.578125 Z M 22.328125 -13.515625 "/></g></g></g><g fill="#ffffff" fill-opacity="1"><g transform="translate(218.52537, 139.997585)"><g><path d="M 13.171875 2.0625 L 6.90625 -0.578125 L 4.65625 1.96875 L 0.390625 0.171875 L 13.546875 -14.046875 L 18.28125 -12.046875 L 17.25 7.296875 L 12.921875 5.46875 Z M 13.4375 -1.515625 L 13.984375 -8.546875 L 9.3125 -3.265625 Z M 13.4375 -1.515625 "/></g></g></g><g fill="#ffffff" fill-opacity="1"><g transform="translate(234.996206, 146.815819)"><g><path d="M 15.015625 9.71875 L 11.3125 7.328125 L 11.1875 -6.140625 L 5.078125 3.28125 L 1.34375 0.875 L 11.234375 -14.40625 L 14.96875 -12 L 15.078125 1.515625 L 21.203125 -7.953125 L 24.90625 -5.5625 Z M 15.015625 9.71875 "/></g></g></g><g fill="#ffffff" fill-opacity="1"><g transform="translate(110.343937, 311.775945)"><g><path d="M 17.1875 -4.296875 L 15.046875 -1.546875 L 10.734375 -4.953125 L 9.53125 -3.4375 L 12.640625 -0.984375 L 10.609375 1.609375 L 7.5 -0.84375 L 4.234375 3.3125 L 0.78125 0.609375 L 9.421875 -10.40625 Z M 17.1875 -4.296875 "/></g></g></g><g fill="#ffffff" fill-opacity="1"><g transform="translate(119.836174, 319.334124)"><g><path d="M 6.609375 4.171875 C 5.472656 3.484375 4.597656 2.585938 3.984375 1.484375 C 3.367188 0.390625 3.066406 -0.789062 3.078125 -2.0625 C 3.097656 -3.332031 3.460938 -4.554688 4.171875 -5.734375 C 4.878906 -6.898438 5.789062 -7.78125 6.90625 -8.375 C 8.03125 -8.976562 9.21875 -9.257812 10.46875 -9.21875 C 11.726562 -9.175781 12.925781 -8.8125 14.0625 -8.125 C 15.175781 -7.445312 16.039062 -6.5625 16.65625 -5.46875 C 17.28125 -4.375 17.582031 -3.191406 17.5625 -1.921875 C 17.539062 -0.660156 17.175781 0.550781 16.46875 1.71875 C 15.757812 2.894531 14.847656 3.785156 13.734375 4.390625 C 12.617188 4.992188 11.429688 5.273438 10.171875 5.234375 C 8.910156 5.203125 7.722656 4.847656 6.609375 4.171875 Z M 8.734375 0.671875 C 9.472656 1.117188 10.191406 1.222656 10.890625 0.984375 C 11.585938 0.742188 12.179688 0.21875 12.671875 -0.59375 C 13.171875 -1.40625 13.359375 -2.171875 13.234375 -2.890625 C 13.117188 -3.617188 12.691406 -4.207031 11.953125 -4.65625 C 11.191406 -5.113281 10.460938 -5.222656 9.765625 -4.984375 C 9.078125 -4.753906 8.484375 -4.234375 7.984375 -3.421875 C 7.492188 -2.609375 7.304688 -1.835938 7.421875 -1.109375 C 7.535156 -0.378906 7.972656 0.210938 8.734375 0.671875 Z M 8.734375 0.671875 "/></g></g></g><g fill="#ffffff" fill-opacity="1"><g transform="translate(133.947858, 327.808468)"><g><path d="M 7.125 3.203125 C 5.90625 2.679688 4.910156 1.921875 4.140625 0.921875 C 3.378906 -0.078125 2.914062 -1.207031 2.75 -2.46875 C 2.59375 -3.726562 2.785156 -4.992188 3.328125 -6.265625 C 3.859375 -7.515625 4.632812 -8.515625 5.65625 -9.265625 C 6.6875 -10.015625 7.828125 -10.453125 9.078125 -10.578125 C 10.335938 -10.710938 11.578125 -10.519531 12.796875 -10 C 13.992188 -9.488281 14.972656 -8.734375 15.734375 -7.734375 C 16.503906 -6.742188 16.96875 -5.617188 17.125 -4.359375 C 17.28125 -3.109375 17.09375 -1.859375 16.5625 -0.609375 C 16.019531 0.660156 15.238281 1.671875 14.21875 2.421875 C 13.195312 3.179688 12.054688 3.628906 10.796875 3.765625 C 9.546875 3.898438 8.320312 3.710938 7.125 3.203125 Z M 8.75 -0.5625 C 9.539062 -0.226562 10.265625 -0.222656 10.921875 -0.546875 C 11.578125 -0.878906 12.09375 -1.484375 12.46875 -2.359375 C 12.84375 -3.234375 12.921875 -4.019531 12.703125 -4.71875 C 12.484375 -5.414062 11.976562 -5.929688 11.1875 -6.265625 C 10.363281 -6.617188 9.625 -6.628906 8.96875 -6.296875 C 8.320312 -5.972656 7.8125 -5.375 7.4375 -4.5 C 7.0625 -3.625 6.976562 -2.835938 7.1875 -2.140625 C 7.40625 -1.441406 7.925781 -0.914062 8.75 -0.5625 Z M 8.75 -0.5625 "/></g></g></g><g fill="#ffffff" fill-opacity="1"><g transform="translate(149.042082, 334.103344)"><g><path d="M 15.375 -10.140625 L 14.421875 -6.796875 L 10.84375 -7.828125 L 7.9375 2.28125 L 3.71875 1.0625 L 6.625 -9.046875 L 3.09375 -10.046875 L 4.046875 -13.390625 Z M 15.375 -10.140625 "/></g></g></g><g fill="#ffffff" fill-opacity="1"><g transform="translate(161.442791, 337.665268)"><g><path d="M 11.390625 -5.390625 C 12.191406 -5.046875 12.773438 -4.535156 13.140625 -3.859375 C 13.503906 -3.191406 13.617188 -2.457031 13.484375 -1.65625 C 13.285156 -0.445312 12.726562 0.414062 11.8125 0.9375 C 10.90625 1.46875 9.707031 1.609375 8.21875 1.359375 L 0.96875 0.15625 L 3.265625 -13.65625 L 10.3125 -12.484375 C 11.71875 -12.253906 12.769531 -11.765625 13.46875 -11.015625 C 14.164062 -10.273438 14.414062 -9.316406 14.21875 -8.140625 C 14.09375 -7.328125 13.769531 -6.679688 13.25 -6.203125 C 12.738281 -5.722656 12.117188 -5.453125 11.390625 -5.390625 Z M 6.6875 -7.546875 L 8.375 -7.265625 C 8.757812 -7.203125 9.0625 -7.234375 9.28125 -7.359375 C 9.5 -7.484375 9.632812 -7.707031 9.6875 -8.03125 C 9.75 -8.363281 9.695312 -8.628906 9.53125 -8.828125 C 9.363281 -9.023438 9.085938 -9.15625 8.703125 -9.21875 L 7.015625 -9.5 Z M 7.859375 -2.265625 C 8.242188 -2.203125 8.539062 -2.226562 8.75 -2.34375 C 8.96875 -2.46875 9.101562 -2.695312 9.15625 -3.03125 C 9.269531 -3.695312 8.945312 -4.09375 8.1875 -4.21875 L 6.203125 -4.546875 L 5.875 -2.59375 Z M 7.859375 -2.265625 "/></g></g></g><g fill="#ffffff" fill-opacity="1"><g transform="translate(175.58814, 340.014639)"><g><path d="M 10.046875 -1.765625 L 5.375 -1.921875 L 4.609375 0.15625 L 0 0 L 5.609375 -13.8125 L 10.65625 -13.625 L 15.265625 0.53125 L 10.65625 0.375 Z M 9.078125 -5.109375 L 7.953125 -9.046875 L 6.546875 -5.203125 Z M 9.078125 -5.109375 "/></g></g></g><g fill="#ffffff" fill-opacity="1"><g transform="translate(191.567526, 340.383622)"><g><path d="M 5.09375 -3.734375 L 9.3125 -4.0625 L 9.578125 -0.75 L 0.984375 -0.078125 L -0.109375 -14.03125 L 4.265625 -14.375 Z M 5.09375 -3.734375 "/></g></g></g><g fill="#ffffff" fill-opacity="1"><g transform="translate(202.094641, 339.528093)"><g><path d="M 4.734375 -4.1875 L 8.90625 -4.890625 L 9.46875 -1.609375 L 0.96875 -0.171875 L -1.375 -13.96875 L 2.953125 -14.703125 Z M 4.734375 -4.1875 "/></g></g></g><g fill="#ffffff" fill-opacity="1"><g transform="translate(212.299679, 337.678348)"><g/></g></g><g fill="#ffffff" fill-opacity="1"><g transform="translate(216.12607, 337.010297)"><g><path d="M -1.578125 -6.875 C -2.003906 -8.1875 -2.113281 -9.4375 -1.90625 -10.625 C -1.707031 -11.820312 -1.203125 -12.863281 -0.390625 -13.75 C 0.410156 -14.644531 1.488281 -15.3125 2.84375 -15.75 C 3.988281 -16.113281 5.085938 -16.226562 6.140625 -16.09375 C 7.191406 -15.957031 8.128906 -15.585938 8.953125 -14.984375 C 9.773438 -14.378906 10.445312 -13.582031 10.96875 -12.59375 L 6.5625 -11.171875 C 6.21875 -11.535156 5.820312 -11.78125 5.375 -11.90625 C 4.9375 -12.03125 4.476562 -12.015625 4 -11.859375 C 3.300781 -11.640625 2.832031 -11.203125 2.59375 -10.546875 C 2.351562 -9.890625 2.378906 -9.117188 2.671875 -8.234375 C 2.953125 -7.335938 3.378906 -6.691406 3.953125 -6.296875 C 4.535156 -5.898438 5.175781 -5.8125 5.875 -6.03125 C 6.351562 -6.1875 6.734375 -6.445312 7.015625 -6.8125 C 7.304688 -7.175781 7.484375 -7.609375 7.546875 -8.109375 L 11.953125 -9.53125 C 12.109375 -8.414062 12.023438 -7.367188 11.703125 -6.390625 C 11.390625 -5.421875 10.84375 -4.570312 10.0625 -3.84375 C 9.289062 -3.113281 8.332031 -2.566406 7.1875 -2.203125 C 5.832031 -1.765625 4.566406 -1.671875 3.390625 -1.921875 C 2.222656 -2.179688 1.207031 -2.738281 0.34375 -3.59375 C -0.519531 -4.457031 -1.160156 -5.550781 -1.578125 -6.875 Z M -1.578125 -6.875 "/></g></g></g><g fill="#ffffff" fill-opacity="1"><g transform="translate(230.903885, 332.080812)"><g><path d="M 3.546875 -5.234375 L 7.40625 -6.96875 L 8.765625 -3.9375 L 0.890625 -0.40625 L -4.84375 -13.171875 L -0.828125 -14.96875 Z M 3.546875 -5.234375 "/></g></g></g><g fill="#ffffff" fill-opacity="1"><g transform="translate(240.684584, 327.768299)"><g><path d="M -2.546875 -14.734375 L 1.453125 -7.9375 C 1.773438 -7.382812 2.15625 -7.019531 2.59375 -6.84375 C 3.03125 -6.664062 3.523438 -6.738281 4.078125 -7.0625 C 4.617188 -7.375 4.921875 -7.769531 4.984375 -8.25 C 5.054688 -8.726562 4.929688 -9.242188 4.609375 -9.796875 L 0.609375 -16.59375 L 4.375 -18.796875 L 8.375 -12 C 9.050781 -10.851562 9.382812 -9.734375 9.375 -8.640625 C 9.375 -7.546875 9.082031 -6.550781 8.5 -5.65625 C 7.914062 -4.757812 7.113281 -4.007812 6.09375 -3.40625 C 5.070312 -2.8125 4.039062 -2.488281 3 -2.4375 C 1.96875 -2.382812 0.992188 -2.628906 0.078125 -3.171875 C -0.835938 -3.710938 -1.632812 -4.5625 -2.3125 -5.71875 L -6.3125 -12.515625 Z M -2.546875 -14.734375 "/></g></g></g><g fill="#ffffff" fill-opacity="1"><g transform="translate(253.576108, 320.111391)"><g><path d="M 3.828125 -12 C 4.628906 -12.363281 5.398438 -12.445312 6.140625 -12.25 C 6.878906 -12.050781 7.5 -11.628906 8 -10.984375 C 8.738281 -10.015625 8.988281 -9.019531 8.75 -8 C 8.507812 -6.976562 7.789062 -6.003906 6.59375 -5.078125 L 0.78125 -0.59375 L -7.75 -11.6875 L -2.09375 -16.046875 C -0.957031 -16.921875 0.113281 -17.359375 1.125 -17.359375 C 2.144531 -17.367188 3.019531 -16.898438 3.75 -15.953125 C 4.25 -15.304688 4.5 -14.628906 4.5 -13.921875 C 4.5 -13.222656 4.273438 -12.582031 3.828125 -12 Z M -0.9375 -10.046875 L 0.40625 -11.078125 C 0.71875 -11.316406 0.898438 -11.554688 0.953125 -11.796875 C 1.003906 -12.046875 0.929688 -12.300781 0.734375 -12.5625 C 0.523438 -12.832031 0.296875 -12.972656 0.046875 -12.984375 C -0.203125 -12.992188 -0.484375 -12.878906 -0.796875 -12.640625 L -2.140625 -11.609375 Z M 3.703125 -7.28125 C 4.015625 -7.519531 4.195312 -7.753906 4.25 -7.984375 C 4.3125 -8.222656 4.238281 -8.476562 4.03125 -8.75 C 3.613281 -9.289062 3.097656 -9.328125 2.484375 -8.859375 L 0.90625 -7.640625 L 2.125 -6.0625 Z M 3.703125 -7.28125 "/></g></g></g><g clip-path="url(#3f71032e55)"><g clip-path="url(#42908cd45e)"><path stroke-linecap="butt" transform="matrix(0.75, 0, 0, 0.75, 105.409699, 148.152545)" fill="none" stroke-linejoin="miter" d="M 109.344367 -0.000267895 C 48.953738 -0.000267895 0.000609429 48.95286 0.000609429 109.343489 C 0.000609429 169.734118 48.953738 218.687246 109.344367 218.687246 C 169.734996 218.687246 218.688124 169.734118 218.688124 109.343489 C 218.688124 48.95286 169.734996 -0.000267895 109.344367 -0.000267895 Z M 109.344367 -0.000267895 " stroke="#ffffff" stroke-width="16" stroke-opacity="1" stroke-miterlimit="4"/></g></g><g clip-path="url(#59c48cf9f0)"><path fill="#ffffff" d="M 67.40625 230.160156 L 73.347656 227.230469 L 74.300781 220.675781 L 78.921875 225.417969 L 85.453125 224.296875 L 82.371094 230.160156 L 85.453125 236.023438 L 78.921875 234.90625 L 74.300781 239.648438 L 73.347656 233.09375 Z M 67.40625 230.160156 " fill-opacity="1" fill-rule="nonzero"/></g><g clip-path="url(#8d066d4be6)"><path fill="#ffffff" d="M 75.292969 210.109375 L 80.171875 208.53125 L 81.640625 203.617188 L 84.648438 207.769531 L 89.773438 207.644531 L 86.753906 211.792969 L 88.457031 216.628906 L 83.582031 215.039062 L 79.507812 218.152344 L 79.515625 213.023438 Z M 75.292969 210.109375 " fill-opacity="1" fill-rule="nonzero"/></g><g clip-path="url(#e493a756ec)"><path fill="#ffffff" d="M 75.292969 250.210938 L 80.171875 251.789062 L 81.640625 256.703125 L 84.648438 252.550781 L 89.773438 252.675781 L 86.753906 248.53125 L 88.457031 243.691406 L 83.582031 245.285156 L 79.507812 242.167969 L 79.515625 247.296875 Z M 75.292969 250.210938 " fill-opacity="1" fill-rule="nonzero"/></g><g clip-path="url(#7d4576bc16)"><g transform="matrix(1, 0, 0, 1, 285, 203)"><g clip-path="url(#b5285b1be4)"><g clip-path="url(#d78dc5ea6d)"><path fill="#ffffff" d="M 22.523438 27.160156 L 16.582031 24.230469 L 15.628906 17.675781 L 11.003906 22.417969 L 4.476562 21.296875 L 7.558594 27.160156 L 4.476562 33.023438 L 11.003906 31.90625 L 15.628906 36.648438 L 16.582031 30.09375 Z M 22.523438 27.160156 " fill-opacity="1" fill-rule="nonzero"/></g><g clip-path="url(#7904a0d4f6)"><path fill="#ffffff" d="M 14.636719 7.109375 L 9.757812 5.53125 L 8.289062 0.617188 L 5.28125 4.769531 L 0.152344 4.644531 L 3.171875 8.792969 L 1.472656 13.628906 L 6.347656 12.039062 L 10.421875 15.152344 L 10.414062 10.023438 Z M 14.636719 7.109375 " fill-opacity="1" fill-rule="nonzero"/></g><g clip-path="url(#648a571d2f)"><path fill="#ffffff" d="M 14.636719 47.210938 L 9.757812 48.789062 L 8.289062 53.703125 L 5.28125 49.550781 L 0.152344 49.675781 L 3.171875 45.53125 L 1.472656 40.691406 L 6.347656 42.285156 L 10.421875 39.167969 L 10.414062 44.296875 Z M 14.636719 47.210938 " fill-opacity="1" fill-rule="nonzero"/></g></g></g></g><g clip-path="url(#f79f975c62)"><path fill="#ffffff" d="M 177.109375 216.785156 C 177.242188 216.886719 177.375 216.988281 177.503906 217.089844 C 177.589844 217.152344 177.675781 217.21875 177.765625 217.285156 C 178.410156 217.773438 179.140625 218.324219 180.015625 218.0625 L 180.019531 218.058594 C 180.257812 217.851562 180.375 217.59375 180.371094 217.28125 C 180.363281 216.871094 180.207031 216.527344 179.898438 216.253906 C 179.542969 215.894531 179.175781 215.535156 178.816406 215.191406 C 177.632812 214.117188 176.574219 212.929688 175.640625 211.628906 C 174.867188 210.441406 174.230469 209.183594 173.742188 207.851562 C 173.542969 207.367188 173.335938 206.863281 173.117188 206.378906 C 172.441406 204.847656 171.28125 203.636719 170.164062 202.464844 C 169.5 201.792969 168.878906 201.089844 168.292969 200.351562 C 167.632812 199.550781 167.019531 198.691406 166.429688 197.855469 C 165.523438 196.492188 164.5 195.222656 163.359375 194.050781 C 162.996094 193.636719 162.542969 193.425781 161.992188 193.410156 L 161.972656 193.410156 C 161.546875 193.402344 161.191406 193.554688 160.90625 193.867188 C 159.914062 194.824219 158.984375 195.835938 158.117188 196.90625 C 157.652344 197.453125 157.171875 198.023438 156.679688 198.5625 C 153.992188 201.648438 150.851562 204.375 147.816406 207.011719 C 146.636719 208.035156 145.417969 209.09375 144.242188 210.15625 C 143.191406 211.082031 142.65625 212.375 142.140625 213.628906 C 141.964844 214.050781 141.78125 214.488281 141.585938 214.902344 C 141.261719 215.617188 140.933594 216.34375 140.617188 217.046875 C 139.722656 219.046875 138.792969 221.117188 137.777344 223.101562 C 137.496094 223.730469 136.90625 224.09375 136.335938 224.441406 C 135.636719 224.871094 134.910156 225.3125 134.785156 226.246094 C 134.574219 226.984375 134.652344 228.078125 135.144531 228.554688 C 135.324219 228.734375 135.542969 228.820312 135.792969 228.8125 C 135.949219 228.8125 136.101562 228.785156 136.246094 228.738281 C 137.96875 228.132812 139.414062 226.953125 140.8125 225.8125 C 141.035156 225.628906 141.265625 225.445312 141.492188 225.261719 C 142.523438 224.300781 143.621094 223.421875 144.785156 222.625 C 146.015625 221.789062 147.167969 220.859375 148.242188 219.832031 L 148.257812 219.816406 L 148.238281 219.804688 C 147.660156 219.449219 147.03125 219.242188 146.351562 219.1875 C 145.96875 219.132812 145.59375 219.054688 145.222656 218.945312 C 145.839844 217.859375 146.605469 216.894531 147.515625 216.046875 C 147.628906 215.929688 147.742188 215.8125 147.855469 215.695312 C 149.695312 213.933594 151.652344 212.238281 153.546875 210.597656 C 155.261719 209.109375 157.039062 207.570312 158.722656 205.984375 C 157.714844 208.40625 156.664062 210.191406 155.421875 211.605469 C 154.613281 212.457031 154.65625 213.578125 154.695312 214.660156 C 154.777344 215.417969 154.710938 216.164062 154.492188 216.898438 C 153.722656 218.027344 152.835938 219.105469 151.980469 220.148438 C 150.742188 221.578125 149.628906 223.101562 148.648438 224.71875 L 148.617188 224.765625 L 148.667969 224.742188 C 151.632812 223.375 153.625 220.757812 155.550781 218.226562 C 156.242188 217.3125 156.960938 216.371094 157.707031 215.507812 C 159.136719 213.472656 160.984375 211.949219 163.25 210.933594 C 163.933594 211.144531 164.625 211.371094 165.292969 211.589844 C 166.992188 212.144531 168.75 212.71875 170.527344 213.105469 L 170.554688 213.113281 L 170.550781 213.085938 C 170.355469 211.894531 170.085938 210.699219 169.828125 209.539062 C 169.625 208.640625 169.417969 207.710938 169.246094 206.785156 C 170.078125 207.960938 170.851562 209.171875 171.566406 210.425781 C 172.058594 211.257812 172.566406 212.117188 173.105469 212.9375 C 174.140625 214.496094 175.652344 215.660156 177.109375 216.785156 Z M 177.109375 216.785156 " fill-opacity="1" fill-rule="nonzero"/></g><path fill="#ffffff" d="M 195.835938 225.070312 C 194.738281 227.777344 193.1875 230.300781 191.6875 232.738281 C 190.378906 234.78125 189.1875 236.890625 188.121094 239.070312 L 188.101562 239.117188 L 188.144531 239.09375 C 189.210938 238.589844 190.011719 237.710938 190.789062 236.855469 C 191.074219 236.542969 191.367188 236.222656 191.671875 235.921875 C 192.992188 234.425781 194.386719 232.945312 195.730469 231.515625 C 197.574219 229.558594 199.476562 227.539062 201.222656 225.445312 L 201.230469 225.4375 L 201.226562 225.429688 C 201.113281 224.460938 200.960938 223.484375 200.808594 222.535156 C 200.613281 221.296875 200.410156 220.019531 200.296875 218.746094 C 203.0625 220.007812 205.351562 222.046875 207.566406 224.023438 C 208.25 224.632812 208.957031 225.265625 209.664062 225.859375 L 209.699219 225.890625 L 209.695312 225.84375 C 209.371094 224.125 208.882812 222.453125 208.230469 220.832031 C 207.957031 220.082031 207.671875 219.308594 207.429688 218.539062 C 207.292969 218.097656 207.140625 217.652344 206.992188 217.222656 C 206.472656 215.722656 205.941406 214.171875 206.0625 212.550781 C 206.851562 213.050781 207.539062 213.664062 208.117188 214.398438 C 208.414062 214.726562 208.714844 215.070312 209.035156 215.375 C 209.421875 215.824219 209.851562 216.253906 210.261719 216.667969 C 211.019531 217.382812 211.699219 218.164062 212.300781 219.015625 C 212.445312 219.613281 212.511719 220.21875 212.496094 220.832031 C 212.457031 221.625 212.585938 222.390625 212.882812 223.125 L 212.886719 223.128906 C 213.6875 223.9375 214.546875 224.671875 215.46875 225.335938 C 216.394531 226.003906 217.257812 226.742188 218.0625 227.554688 C 218.488281 228.453125 218.863281 229.390625 219.222656 230.300781 C 219.421875 230.796875 219.625 231.316406 219.839844 231.820312 C 219.386719 231.769531 218.925781 231.699219 218.484375 231.632812 C 218.015625 231.5625 217.53125 231.488281 217.054688 231.4375 L 217.007812 231.433594 L 217.039062 231.46875 C 217.640625 232.113281 218.28125 232.71875 218.960938 233.285156 C 219.308594 233.589844 219.667969 233.902344 220.011719 234.222656 C 220.171875 234.359375 220.332031 234.503906 220.488281 234.644531 C 221.152344 235.246094 221.835938 235.867188 222.734375 236.097656 L 222.765625 236.105469 L 222.757812 236.078125 C 222.566406 235.414062 222.292969 234.785156 221.941406 234.195312 C 221.550781 233.546875 221.265625 232.855469 221.089844 232.121094 C 222.734375 233.40625 224.292969 234.789062 225.757812 236.277344 L 225.789062 236.308594 L 225.789062 236.261719 C 225.792969 235.859375 225.792969 235.453125 225.796875 235.0625 C 225.796875 234.679688 225.796875 234.285156 225.800781 233.898438 C 226.574219 234.421875 227.320312 235.015625 228.042969 235.59375 C 229.230469 236.605469 230.507812 237.484375 231.882812 238.226562 L 231.890625 238.226562 C 232.035156 238.238281 232.164062 238.207031 232.285156 238.132812 C 232.40625 238.054688 232.492188 237.949219 232.542969 237.816406 C 232.601562 237.617188 232.601562 237.421875 232.546875 237.222656 C 232.488281 237.023438 232.382812 236.855469 232.230469 236.71875 C 230.820312 235.109375 229.355469 233.574219 227.726562 231.882812 C 227.019531 231.214844 226.214844 230.707031 225.308594 230.359375 C 224.320312 229.90625 223.300781 229.4375 222.625 228.507812 C 220.761719 226.066406 219.046875 223.527344 217.480469 220.886719 C 215.453125 217.617188 213.355469 214.234375 210.691406 211.34375 C 209.570312 210.160156 208.429688 208.960938 207.324219 207.800781 C 205.339844 205.710938 203.285156 203.550781 201.277344 201.410156 C 200.96875 201.109375 200.671875 200.785156 200.386719 200.472656 C 199.824219 199.824219 199.207031 199.234375 198.527344 198.710938 C 198.308594 198.523438 198.054688 198.449219 197.765625 198.480469 C 197.144531 198.570312 196.632812 199.28125 196.261719 199.796875 L 196.242188 199.824219 C 194.410156 202.503906 192.457031 205.011719 190.277344 207.777344 C 189.460938 208.824219 188.664062 209.917969 187.898438 210.976562 C 186.34375 213.21875 184.644531 215.339844 182.792969 217.34375 C 181.304688 218.96875 179.691406 220.460938 177.957031 221.820312 C 175.945312 223.484375 173.867188 225.203125 172.269531 227.351562 C 171.628906 228.285156 171.164062 229.300781 170.867188 230.394531 C 170.605469 231.308594 170.242188 232.175781 169.769531 233 C 169.613281 233.265625 169.453125 233.527344 169.292969 233.792969 C 168.175781 235.660156 167.019531 237.589844 165.503906 239.195312 C 164.496094 240.269531 163.132812 240.847656 161.816406 241.410156 C 161.570312 241.515625 161.316406 241.621094 161.070312 241.730469 C 160.011719 242.136719 159.449219 243.113281 158.90625 244.058594 C 158.796875 244.246094 158.683594 244.441406 158.570312 244.628906 C 157.515625 246.476562 156.28125 248.253906 155.085938 249.976562 C 154.21875 251.222656 153.324219 252.515625 152.503906 253.824219 L 152.4375 253.925781 L 152.53125 253.847656 C 154.582031 252.074219 156.503906 250.089844 158.359375 248.167969 C 159.398438 247.09375 160.472656 245.984375 161.558594 244.921875 C 162.957031 244.277344 164.269531 243.492188 165.503906 242.566406 C 166.074219 242.167969 166.664062 241.757812 167.261719 241.378906 C 167.664062 241.085938 168.09375 240.804688 168.507812 240.535156 C 169.410156 239.992188 170.238281 239.355469 170.996094 238.625 L 171.007812 238.613281 L 170.996094 238.601562 C 170.53125 237.996094 170.03125 237.421875 169.492188 236.882812 C 169.898438 235.878906 170.648438 235.085938 171.378906 234.324219 C 171.582031 234.109375 171.792969 233.886719 171.992188 233.664062 C 175.058594 230.40625 178.53125 226.71875 182.023438 223.160156 C 182.175781 223.011719 182.324219 222.855469 182.46875 222.703125 C 183.019531 222.046875 183.675781 221.53125 184.449219 221.15625 C 184.21875 222.515625 183.574219 223.753906 182.953125 224.953125 C 182.289062 226.238281 181.601562 227.5625 181.421875 229.035156 L 181.417969 229.070312 L 181.449219 229.054688 C 181.515625 229.011719 181.582031 228.972656 181.648438 228.933594 C 182.039062 228.71875 182.410156 228.46875 182.757812 228.1875 C 184.550781 226.59375 186.289062 224.878906 187.972656 223.222656 C 189.585938 221.636719 191.253906 219.992188 192.96875 218.457031 C 191.539062 220.804688 189.894531 223.0625 188.300781 225.246094 C 186.628906 227.539062 184.898438 229.910156 183.421875 232.390625 L 183.417969 232.398438 L 183.421875 232.40625 C 183.5 232.550781 183.582031 232.6875 183.675781 232.820312 C 183.972656 233.261719 184.3125 233.765625 183.90625 234.238281 C 181.714844 237.585938 179.242188 240.816406 176.847656 243.945312 C 175.945312 245.125 175.011719 246.347656 174.105469 247.554688 L 174.132812 247.578125 C 176.449219 245.175781 178.800781 242.722656 181.074219 240.351562 C 185.894531 235.324219 190.875 230.125 195.835938 225.070312 Z M 195.835938 225.070312 " fill-opacity="1" fill-rule="nonzero"/><path fill="#ffffff" d="M 156.414062 232.8125 L 156.40625 232.84375 L 156.4375 232.835938 C 157.289062 232.515625 157.894531 231.835938 158.480469 231.183594 C 158.632812 231.011719 158.789062 230.839844 158.945312 230.671875 C 159.378906 230.171875 159.835938 229.675781 160.277344 229.191406 C 161.5625 227.792969 162.886719 226.347656 163.832031 224.65625 C 164.207031 223.964844 164.515625 223.246094 164.761719 222.5 C 165.003906 221.78125 165.300781 221.082031 165.65625 220.414062 C 166.429688 221.066406 167.167969 221.761719 167.863281 222.496094 C 169.050781 223.707031 170.28125 224.957031 171.832031 225.75 L 171.863281 225.765625 L 171.859375 225.730469 C 171.683594 224.960938 171.351562 224.261719 170.863281 223.640625 C 170.734375 223.449219 170.601562 223.253906 170.480469 223.058594 C 169.648438 221.816406 168.839844 220.523438 168.0625 219.273438 C 167.074219 217.695312 166.054688 216.0625 164.96875 214.511719 C 164.945312 214.480469 164.917969 214.453125 164.894531 214.421875 C 164.511719 213.964844 163.992188 213.339844 163.359375 213.652344 C 162.011719 214.195312 160.902344 215.175781 159.828125 216.128906 C 159.570312 216.359375 159.300781 216.59375 159.035156 216.820312 C 155.484375 220.027344 152.199219 223.621094 149.023438 227.097656 C 148.007812 228.207031 146.957031 229.351562 145.914062 230.472656 C 145.550781 230.90625 145.15625 231.335938 144.777344 231.75 C 143.75 232.871094 142.691406 234.03125 142.027344 235.433594 L 142.003906 235.480469 L 142.050781 235.457031 C 143.332031 234.734375 144.5 233.855469 145.550781 232.824219 C 145.816406 232.585938 146.09375 232.339844 146.367188 232.101562 C 147.285156 231.296875 148.195312 230.445312 149.074219 229.625 C 151.023438 227.796875 153.042969 225.90625 155.300781 224.398438 C 155.125 225.59375 154.453125 226.636719 153.804688 227.640625 C 153.109375 228.722656 152.390625 229.839844 152.265625 231.160156 L 152.265625 231.195312 L 152.292969 231.175781 C 153.964844 230.257812 155.40625 228.972656 156.804688 227.726562 C 157.933594 226.667969 159.136719 225.699219 160.410156 224.820312 C 159.925781 226.09375 159.296875 227.292969 158.519531 228.414062 C 157.65625 229.78125 156.757812 231.191406 156.414062 232.8125 Z M 156.414062 232.8125 " fill-opacity="1" fill-rule="nonzero"/><g clip-path="url(#64046099ab)"><path fill="#ffffff" d="M 134.449219 246.46875 C 135.902344 245.289062 137.402344 244.070312 139.226562 243.46875 L 139.234375 243.464844 L 139.238281 243.457031 C 139.769531 241.789062 139.867188 240.09375 139.539062 238.375 C 139.167969 237.1875 138.378906 236.21875 137.617188 235.285156 C 137.273438 234.863281 136.917969 234.425781 136.605469 233.976562 C 135.714844 232.785156 134.929688 231.527344 134.242188 230.203125 C 133.511719 228.773438 132.648438 227.425781 131.660156 226.160156 C 131.246094 225.609375 130.695312 225.285156 130.011719 225.1875 C 129.605469 225.152344 129.253906 225.277344 128.964844 225.566406 C 128.007812 226.4375 127.109375 227.367188 126.277344 228.355469 C 125.761719 228.941406 125.230469 229.542969 124.679688 230.109375 C 122.496094 232.484375 119.957031 234.550781 117.503906 236.550781 C 114.929688 238.648438 112.265625 240.816406 110.003906 243.34375 C 109.679688 243.6875 109.351562 244.046875 109.035156 244.394531 C 107.640625 245.914062 106.199219 247.488281 104.335938 248.460938 C 103.804688 248.714844 103.253906 248.882812 102.671875 248.96875 C 101.746094 249.152344 100.789062 249.34375 100.214844 250.199219 C 99.582031 251.125 99.007812 252.085938 98.496094 253.085938 C 98.179688 253.671875 97.851562 254.28125 97.503906 254.863281 C 96.375 256.710938 95.125 258.472656 93.753906 260.152344 C 92.410156 261.800781 91.179688 263.535156 90.058594 265.347656 L 90.003906 265.441406 L 90.085938 265.371094 C 91.714844 263.96875 93.242188 262.40625 94.722656 260.898438 C 95.339844 260.265625 95.984375 259.609375 96.621094 258.976562 C 96.867188 258.742188 97.113281 258.484375 97.351562 258.234375 C 98.339844 257.207031 99.363281 256.140625 100.835938 255.945312 L 100.847656 255.945312 L 100.851562 255.933594 C 101.175781 254.074219 102.667969 253.046875 104.109375 252.054688 C 104.546875 251.753906 104.996094 251.445312 105.398438 251.121094 C 106.042969 250.679688 106.671875 250.199219 107.28125 249.730469 C 108.386719 248.824219 109.566406 248.027344 110.820312 247.339844 C 110.769531 248.664062 110.246094 249.910156 109.742188 251.121094 C 109.449219 251.792969 109.1875 252.480469 108.96875 253.179688 C 108.710938 254.234375 107.914062 254.945312 107.140625 255.636719 C 106.886719 255.863281 106.617188 256.101562 106.378906 256.347656 C 105.664062 257.035156 104.917969 257.722656 104.199219 258.382812 C 102.523438 259.863281 100.941406 261.4375 99.457031 263.109375 L 99.382812 263.195312 L 99.480469 263.136719 C 100.84375 262.257812 102.148438 261.292969 103.390625 260.246094 C 104.082031 259.6875 104.800781 259.109375 105.523438 258.570312 C 106.132812 258.070312 106.753906 257.566406 107.355469 257.078125 C 110.332031 254.65625 113.410156 252.152344 116.054688 249.300781 L 116.082031 249.269531 L 116.042969 249.269531 C 115.722656 249.261719 115.402344 249.257812 115.085938 249.257812 C 114.46875 249.25 113.828125 249.246094 113.203125 249.191406 C 113.589844 248.128906 114.347656 247.273438 115.082031 246.449219 C 115.203125 246.3125 115.320312 246.179688 115.4375 246.046875 C 117.691406 243.726562 120.0625 241.53125 122.542969 239.457031 C 124.019531 238.179688 125.546875 236.859375 126.992188 235.507812 C 126.25 237.664062 125.316406 239.734375 124.199219 241.71875 L 124.195312 241.726562 C 124.109375 242.328125 124.082031 242.929688 124.117188 243.535156 C 124.140625 244.648438 124.167969 245.800781 123.441406 246.71875 C 123.25 246.980469 123.054688 247.246094 122.867188 247.503906 C 121.738281 248.941406 120.769531 250.476562 119.957031 252.113281 L 119.933594 252.171875 L 119.984375 252.136719 C 121.539062 251.019531 122.972656 249.757812 124.277344 248.355469 C 124.792969 247.835938 125.328125 247.300781 125.863281 246.792969 C 127.097656 245.441406 128.761719 244.648438 130.367188 243.878906 C 131.011719 243.574219 131.675781 243.253906 132.304688 242.90625 C 131.519531 244.246094 130.660156 245.539062 129.730469 246.78125 C 127.261719 250.183594 123.839844 252.714844 120.53125 255.164062 C 119.605469 255.847656 118.648438 256.558594 117.730469 257.269531 C 115.992188 258.605469 114.183594 259.910156 112.433594 261.171875 C 109.914062 262.988281 107.308594 264.863281 104.867188 266.867188 L 104.886719 266.894531 L 104.9375 266.863281 C 114.300781 260.8125 123.980469 254.554688 132.964844 247.640625 C 133.46875 247.265625 133.964844 246.859375 134.449219 246.46875 Z M 134.449219 246.46875 " fill-opacity="1" fill-rule="nonzero"/></g><path fill="#ffffff" d="M 229.726562 252.273438 C 229.0625 251.828125 228.375 251.371094 227.703125 250.914062 C 227.453125 250.742188 227.191406 250.566406 226.941406 250.398438 C 225.585938 249.5 224.183594 248.570312 223.378906 247.109375 C 223.253906 246.886719 223.128906 246.65625 223.007812 246.433594 C 222.332031 245.183594 221.636719 243.890625 220.394531 243.109375 C 219.292969 242.480469 218.140625 241.964844 216.9375 241.558594 C 215.417969 240.988281 213.84375 240.402344 212.558594 239.351562 C 211.5 238.070312 210.96875 236.480469 210.457031 234.945312 C 209.960938 233.449219 209.449219 231.90625 208.445312 230.636719 C 206.957031 228.808594 204.566406 228.265625 202.820312 228.132812 C 201.695312 228.144531 200.929688 229.03125 200.253906 229.8125 C 200.125 229.960938 200.003906 230.097656 199.878906 230.234375 C 198.457031 231.988281 197.035156 233.789062 195.660156 235.53125 C 194.460938 237.046875 193.222656 238.617188 191.988281 240.148438 C 191.304688 240.867188 191.238281 241.839844 191.171875 242.78125 C 191.15625 243.019531 191.136719 243.265625 191.109375 243.503906 C 188.796875 245.320312 186.523438 247.257812 184.320312 249.132812 C 183.5625 249.777344 182.78125 250.441406 182.007812 251.09375 C 181.632812 251.445312 181.226562 251.78125 180.835938 252.109375 C 179.933594 252.804688 179.128906 253.601562 178.425781 254.5 L 178.371094 254.574219 L 178.449219 254.527344 C 181.707031 252.460938 184.933594 250.226562 188.054688 248.066406 C 188.921875 247.46875 189.816406 246.847656 190.699219 246.242188 C 194.664062 243.546875 198.347656 240.507812 201.75 237.125 C 201.824219 237.058594 201.898438 236.984375 201.972656 236.917969 C 202.226562 236.632812 202.527344 236.417969 202.878906 236.265625 C 203.820312 236.609375 204.691406 237.082031 205.492188 237.683594 C 205.828125 237.914062 206.175781 238.152344 206.527344 238.363281 C 208.3125 239.574219 210.109375 240.828125 211.851562 242.039062 C 215.832031 244.8125 219.949219 247.675781 224.164062 250.242188 C 224.851562 250.621094 225.546875 251.011719 226.21875 251.390625 C 228.941406 252.980469 231.738281 254.421875 234.613281 255.714844 L 234.75 255.773438 L 234.632812 255.683594 C 233.039062 254.488281 231.355469 253.359375 229.726562 252.273438 Z M 229.726562 252.273438 " fill-opacity="1" fill-rule="nonzero"/><g clip-path="url(#8009803b01)"><path fill="#ffffff" d="M 284.601562 259.191406 C 283.585938 258.292969 282.480469 257.472656 281.410156 256.683594 C 280.847656 256.265625 280.265625 255.835938 279.703125 255.398438 C 279.5 255.25 279.289062 255.097656 279.085938 254.949219 C 277.4375 253.742188 275.738281 252.496094 273.625 252.441406 C 271.992188 252.375 270.785156 251.28125 269.617188 250.226562 C 269.519531 250.136719 269.417969 250.046875 269.320312 249.957031 C 269.105469 249.757812 268.878906 249.566406 268.640625 249.390625 C 268.074219 248.953125 267.492188 248.496094 267.308594 247.757812 C 266.910156 246.4375 265.808594 245.640625 264.742188 244.871094 C 264.363281 244.597656 263.96875 244.3125 263.621094 244.007812 C 261.785156 242.628906 260.152344 241.039062 258.726562 239.234375 C 256.59375 236.773438 253.980469 234.753906 251.457031 232.804688 C 250.269531 231.882812 249.039062 230.929688 247.875 229.945312 C 246.84375 229.039062 245.878906 228.777344 245.085938 229.1875 C 244.304688 229.703125 243.59375 230.300781 242.953125 230.980469 C 242.25 231.75 241.449219 232.394531 240.554688 232.925781 C 240.007812 233.160156 239.449219 233.355469 238.878906 233.511719 C 237.921875 233.796875 236.929688 234.089844 236.140625 234.765625 C 234.960938 235.75 234.195312 237.097656 233.457031 238.402344 C 233.160156 238.929688 232.851562 239.472656 232.523438 239.984375 C 231.5 241.542969 230.339844 242.992188 229.046875 244.335938 C 228.6875 244.734375 228.316406 245.144531 227.960938 245.550781 C 227.898438 245.625 227.839844 245.695312 227.777344 245.769531 C 227.273438 246.265625 226.929688 246.855469 226.753906 247.542969 C 226.746094 247.710938 226.785156 247.871094 226.875 248.011719 C 226.964844 248.15625 227.089844 248.261719 227.246094 248.324219 C 227.414062 248.40625 227.59375 248.425781 227.777344 248.394531 C 227.964844 248.363281 228.121094 248.28125 228.257812 248.148438 C 229.316406 247.21875 230.355469 246.234375 231.363281 245.285156 C 232.511719 244.199219 233.695312 243.082031 234.914062 242.035156 C 235.117188 241.824219 235.363281 241.691406 235.652344 241.636719 C 235.941406 241.585938 236.21875 241.617188 236.484375 241.742188 L 236.492188 241.746094 L 236.5 241.738281 C 237.503906 240.867188 238.492188 239.941406 239.449219 239.046875 C 241.097656 237.441406 242.828125 235.9375 244.644531 234.53125 L 244.769531 234.625 C 245.140625 234.894531 245.488281 235.1875 245.8125 235.507812 C 248.261719 238.183594 251.503906 241.679688 254.90625 245.003906 C 255.242188 245.320312 255.582031 245.652344 255.910156 245.96875 C 257.222656 247.25 258.582031 248.570312 260.183594 249.539062 L 260.234375 249.574219 L 260.207031 249.515625 C 259.011719 247.105469 257.324219 244.941406 255.695312 242.84375 C 254.988281 241.9375 254.261719 241 253.582031 240.058594 C 255.902344 241.394531 258.121094 242.980469 260.265625 244.519531 C 260.726562 244.847656 261.203125 245.191406 261.671875 245.523438 C 261.910156 245.722656 262.179688 245.910156 262.4375 246.089844 C 263.09375 246.542969 263.773438 247.015625 264.082031 247.785156 C 263.84375 247.84375 263.609375 247.898438 263.371094 247.953125 C 262.976562 248.046875 262.5625 248.144531 262.164062 248.242188 L 262.132812 248.25 L 262.15625 248.273438 C 263.703125 249.792969 265.546875 250.992188 267.332031 252.15625 C 267.6875 252.386719 268.050781 252.625 268.410156 252.863281 C 268.695312 253.035156 268.980469 253.21875 269.261719 253.390625 C 270.554688 254.265625 271.917969 255 273.359375 255.597656 C 273.882812 255.859375 274.414062 255.691406 274.929688 255.523438 C 275.496094 255.34375 276.03125 255.171875 276.570312 255.523438 C 277.207031 255.828125 277.851562 256.144531 278.472656 256.449219 C 280.449219 257.421875 282.492188 258.421875 284.582031 259.222656 L 284.675781 259.257812 Z M 284.601562 259.191406 " fill-opacity="1" fill-rule="nonzero"/></g><path fill="#ffffff" d="M 238.960938 244.730469 C 240.328125 243.332031 241.746094 241.882812 242.792969 240.199219 L 242.847656 240.109375 L 242.765625 240.175781 C 241.496094 241.234375 240.292969 242.367188 239.15625 243.570312 C 238.652344 244.082031 238.132812 244.613281 237.605469 245.125 C 237.238281 245.511719 236.859375 245.902344 236.488281 246.277344 C 234.996094 247.808594 233.453125 249.390625 232.339844 251.253906 L 232.28125 251.351562 L 232.367188 251.273438 C 233.554688 250.230469 234.683594 249.085938 235.777344 247.980469 C 236.292969 247.460938 236.828125 246.921875 237.359375 246.402344 C 237.878906 245.835938 238.425781 245.273438 238.960938 244.730469 Z M 238.960938 244.730469 " fill-opacity="1" fill-rule="nonzero"/><path fill="#ffffff" d="M 213.074219 248.316406 C 212.082031 247.457031 211.054688 246.570312 210.074219 245.667969 C 209.488281 245.03125 209.035156 244.3125 208.722656 243.511719 C 208.300781 242.601562 207.863281 241.664062 207.007812 241.066406 C 205.792969 240.492188 204.761719 241.355469 203.851562 242.117188 C 203.585938 242.339844 203.335938 242.546875 203.085938 242.722656 C 201.984375 243.535156 200.921875 244.445312 199.898438 245.328125 C 197.882812 247.058594 195.796875 248.847656 193.320312 249.972656 C 191.085938 251 189.105469 252.390625 187.378906 254.144531 C 186.710938 254.847656 186.085938 255.589844 185.511719 256.371094 C 185.042969 256.976562 184.5625 257.601562 184.039062 258.175781 C 182.867188 259.46875 181.277344 260.210938 179.738281 260.925781 C 178 261.734375 176.203125 262.570312 175.007812 264.203125 L 174.960938 264.269531 L 175.03125 264.230469 C 175.5 263.957031 175.949219 263.65625 176.382812 263.332031 C 176.855469 262.976562 177.347656 262.652344 177.863281 262.363281 C 178.53125 262.011719 179.234375 261.695312 179.914062 261.386719 C 181.152344 260.867188 182.332031 260.238281 183.457031 259.503906 C 184.636719 258.625 185.753906 257.671875 186.804688 256.640625 C 188.1875 255.347656 189.617188 254.003906 191.304688 253.050781 C 192 252.648438 192.722656 252.285156 193.425781 251.929688 C 194.242188 251.519531 195.089844 251.097656 195.886719 250.613281 C 197.625 249.554688 199.324219 248.367188 200.96875 247.222656 C 201.9375 246.542969 202.9375 245.84375 203.9375 245.179688 C 204.183594 244.980469 204.460938 244.878906 204.777344 244.871094 C 205.089844 244.859375 205.375 244.949219 205.628906 245.132812 C 207.726562 246.351562 209.773438 247.726562 211.753906 249.058594 C 213.863281 250.476562 216.046875 251.945312 218.296875 253.222656 L 218.398438 253.28125 L 218.316406 253.195312 C 216.660156 251.472656 214.914062 249.84375 213.074219 248.316406 Z M 213.074219 248.316406 " fill-opacity="1" fill-rule="nonzero"/><path fill="#ffffff" d="M 153.886719 258.132812 C 153.421875 257.734375 152.9375 257.34375 152.46875 256.960938 C 151.054688 255.8125 149.585938 254.621094 148.449219 253.148438 C 147.5 251.894531 146.941406 250.414062 146.398438 248.984375 C 146.042969 247.972656 145.617188 246.988281 145.128906 246.035156 C 144.292969 244.320312 142.230469 243.84375 140.527344 243.617188 C 139.410156 243.367188 138.546875 244.203125 137.921875 244.953125 C 136.859375 246.179688 135.746094 247.402344 134.671875 248.582031 C 133.507812 249.855469 132.308594 251.171875 131.164062 252.5 C 130.726562 252.96875 130.695312 253.601562 130.664062 254.210938 C 130.65625 254.394531 130.644531 254.582031 130.625 254.757812 C 129.929688 255.425781 129.179688 256.066406 128.453125 256.6875 C 127.011719 257.921875 125.519531 259.195312 124.378906 260.757812 L 124.324219 260.828125 L 124.402344 260.78125 C 129.496094 257.761719 134.285156 254.316406 138.769531 250.445312 C 138.871094 250.375 138.96875 250.300781 139.058594 250.21875 C 139.375 249.949219 139.730469 249.644531 140.113281 249.957031 C 141.804688 250.933594 143.425781 252.023438 144.96875 253.21875 C 145.683594 253.75 146.417969 254.292969 147.15625 254.808594 C 152.628906 258.769531 156.925781 261.675781 161.085938 264.234375 L 161.109375 264.203125 C 159.691406 262.914062 158.183594 261.679688 156.726562 260.488281 C 155.789062 259.722656 154.824219 258.933594 153.886719 258.132812 Z M 153.886719 258.132812 " fill-opacity="1" fill-rule="nonzero"/><path fill="#ffffff" d="M 243.050781 247.359375 C 242.480469 246.980469 242.023438 247.433594 241.617188 247.832031 C 241.515625 247.933594 241.417969 248.027344 241.324219 248.109375 C 240.921875 248.535156 240.503906 248.964844 240.097656 249.375 C 238.964844 250.484375 237.910156 251.664062 236.9375 252.917969 L 236.898438 252.976562 L 236.960938 252.945312 C 237.988281 252.429688 238.96875 251.835938 239.898438 251.164062 C 240.90625 250.433594 241.972656 249.800781 243.097656 249.269531 C 244.128906 249.566406 245.117188 249.964844 246.066406 250.464844 C 246.746094 250.808594 247.441406 251.117188 248.148438 251.390625 L 248.238281 251.421875 L 248.167969 251.359375 C 246.585938 249.867188 244.878906 248.53125 243.050781 247.359375 Z M 243.050781 247.359375 " fill-opacity="1" fill-rule="nonzero"/><g clip-path="url(#eda4f82b5a)"><path fill="#ffffff" d="M 147.246094 258.566406 C 146.410156 257.890625 145.546875 257.195312 144.761719 256.449219 C 144.398438 256.003906 144.09375 255.519531 143.847656 254.996094 C 143.542969 254.304688 143.113281 253.703125 142.554688 253.191406 C 141.828125 252.699219 141.003906 253.21875 140.679688 253.464844 C 139.363281 254.382812 138.097656 255.417969 136.878906 256.417969 C 135.992188 257.144531 135.074219 257.894531 134.144531 258.597656 C 133.425781 259.109375 132.671875 259.554688 131.882812 259.9375 C 131.339844 260.222656 130.777344 260.511719 130.25 260.84375 C 128.207031 262.078125 126.6875 263.96875 125.214844 265.796875 C 125.105469 265.929688 125 266.0625 124.890625 266.195312 L 124.824219 266.277344 L 124.914062 266.222656 C 125.863281 265.605469 126.753906 264.921875 127.597656 264.167969 C 128.742188 263.191406 129.925781 262.183594 131.335938 261.546875 C 134.070312 260.277344 136.621094 258.703125 138.980469 256.820312 C 139.105469 256.738281 139.234375 256.644531 139.371094 256.542969 C 139.941406 256.121094 140.582031 255.644531 141.25 256.089844 C 142.738281 256.949219 144.203125 257.902344 145.621094 258.824219 C 147.371094 259.964844 149.179688 261.140625 151.050781 262.152344 L 151.128906 262.195312 L 151.074219 262.125 C 149.921875 260.804688 148.644531 259.617188 147.246094 258.566406 Z M 147.246094 258.566406 " fill-opacity="1" fill-rule="nonzero"/></g></svg>